<?xml version="1.0" encoding="UTF-8"?>
<svg width="512pt" height="512pt" version="1.1" viewBox="0 0 512 512" xmlns="http://www.w3.org/2000/svg">
 <g>
  <path d="m512 256c0 141.39-114.61 256-256 256s-256-114.61-256-256 114.61-256 256-256 256 114.61 256 256" fill="#fff"/>
  <path d="m226.34 323.1-6.0312-36.434-30.375-13.863 0.003906-0.003907c-2.2969-1.0312-4.4609-2.332-6.4492-3.8711l9.2539 49.012-30.922 54.137 16.348 2.9336z" fill="#7ee2fb"/>
  <path d="m240.71 110.9c-2.4727-0.011719-4.9297 0.37109-7.2852 1.1289-7.457 2.2891-13.352 8.0391-15.82 15.438-2.4727 7.3984-1.2148 15.535 3.3711 21.848 4.5859 6.3086 11.938 10.016 19.734 9.9531 8.6406 0 16.625-4.6094 20.945-12.094 4.3203-7.4805 4.3203-16.699 0-24.18-4.3203-7.4844-12.305-12.094-20.945-12.094z" fill="#7ee2fb"/>
  <path d="m346.28 353.99c-0.64453-0.023437-1.25-0.30859-1.6836-0.78906-0.42969-0.48047-0.64844-1.1133-0.60547-1.7578 0.13281-1.293 1.2188-2.2773 2.5156-2.2891l10.352 0.54688-15.379-72.613-44.496 31.664-8.2227 37.531 15.734 0.80469v0.003906c1.3281 0.085937 2.3438 1.2148 2.2891 2.5469-0.070312 1.2852-1.1328 2.2891-2.418 2.2891l-16.121-0.83984h-0.003906c-1.2656-0.066407-2.2578-1.1172-2.2539-2.3828h-26.539l-18.926 3.2227 15.637 5.9023c0.625 0.22656 1.125 0.70312 1.3867 1.3125s0.26172 1.3008 0 1.9102c-0.35156 0.9375-1.2539 1.5586-2.2578 1.5469-0.27344 0.0625-0.5625 0.0625-0.83594 0l-19.348-7.3516c-0.45703-0.17969-0.84375-0.50781-1.0938-0.93359l-41.918 28.277-57.812-10.512-23.379 29.02h194.3l-12.027-24.086-19.348-7.3203h0.003906c-0.63672-0.21484-1.1523-0.6875-1.4219-1.3008-0.26953-0.61328-0.26953-1.3086 0.003906-1.9219 0.23047-0.625 0.70313-1.125 1.3086-1.3945 0.60938-0.26562 1.3008-0.27734 1.9141-0.023438l20.184 7.6406c0.56641 0.20312 1.0312 0.61719 1.2891 1.1602l12.898 26.055c0.15625 0.33203 0.23438 0.69531 0.22656 1.0625h87.641l-39.18-46.336zm-12.898-0.67578-12.895-0.58203c-1.3281-0.085938-2.3438-1.2148-2.2891-2.5469 0.11719-1.3125 1.2305-2.3125 2.5469-2.2891l12.898 0.64453c1.3281 0.085938 2.3438 1.2188 2.2891 2.5469-0.10547 1.3125-1.2344 2.3008-2.5469 2.2266z" fill="#7ee2fb"/>
  <path d="m143.15 229.11c-30.277 0-34.504 72.031-34.664 75.258-0.054687 1.3281 0.96094 2.4609 2.2891 2.5469h0.12891c0.66406 0 1.3008-0.27344 1.7578-0.75391 0.45703-0.48047 0.69531-1.1289 0.66016-1.793 1.0664-19.348 8.4805-70.422 29.828-70.422 2.0703 0.03125 4.1406 0.20313 6.1875 0.51563l2.6445-4.4805c-2.918-0.51172-5.8711-0.80078-8.832-0.87109z" fill="#7ee2fb"/>
  <path d="m177.04 242.27c-0.60547 5.375 0.51172 10.801 3.1875 15.5 2.6758 4.6992 6.7773 8.4297 11.711 10.648l56.07 25.57 10.445 49.883h0.16016l0.003906-0.003907c0.27734-0.03125 0.55859-0.03125 0.83594 0h14.801l-7.4805-74.48-31.02-15.672c4.1602 0.45312 8.2539 0.71094 12.254 0.80469 15.316 0.25781 29.215-2.5469 39.336-10.965 0.90234-0.74219 1.7734-1.5156 2.6133-2.3555 0.83984-0.83984 0.90234-0.90234 1.3555-1.3555l10.156 3.6094 3.4492-10.02-4.9023-2.3867 3.5156-3.6758c19.152-20.281 40.402-44.594 53.781-60.133l9.0938-10.641-22.281 60.102c0.43359 0.14453 0.81641 0.41406 1.0977 0.77344l29.02 38.113 0.22656 0.38672 10.059 20.023c0.58203 1.1914 0.09375 2.6328-1.0938 3.2227-0.33203 0.16797-0.69531 0.25391-1.0664 0.25781-0.91406 0.011719-1.7539-0.50391-2.1602-1.3203l-9.9648-19.828-26.988-35.469 0.28906 50.27 0.003907-0.003906c1.1445-0.039063 2.1523 0.75 2.3867 1.8711l16.121 76.094 39.047 46.27v-80.609c-0.91016 0.003906-1.7461-0.50781-2.1602-1.3203l-9.6719-19.348c-0.56641-1.1953-0.078125-2.6211 1.0938-3.2227 1.1953-0.58203 2.6328-0.09375 3.2266 1.0977l7.5117 14.926v-188.08l-30.469 27.441s0-0.19531-0.22656-0.25781c-0.98828-0.75781-2.3906-0.63281-3.2266 0.28906l-4.8672 5.707c-11.027 12.898-38.984 45.527-63.199 70.938l-3.4805 3.6758-33.535-16.121c-0.34375-0.16406-0.64062-0.40625-0.87109-0.71094l-12.512-16.121-5.6094 19.441 13.348 12.414 29.664 10.543h0.003907c-1.3359 1.3164-2.7812 2.5117-4.3203 3.582-11.316 7.8672-27.441 9.1562-44.754 7.3828-2.5781-0.25781-5.2227-0.58203-7.8672-0.96875l16.445-60.488h-0.003906c1.6133-5.9414-1.457-12.152-7.1562-14.477l-16.445-6.7383c-1.4727-0.60938-3.0508-0.92578-4.6445-0.9375-3.8984 0.09375-7.5195 2.0469-9.7383 5.2578-1.5469 2.2266-3.2227 4.8672-5.1602 7.8359l9.6719-4.5156h0.003907c0.58203-0.27734 1.25-0.30859 1.8555-0.089844 0.60156 0.21875 1.0977 0.66797 1.3711 1.25 0.55078 1.2109 0.035156 2.6445-1.1641 3.2227l-35.598 16.543-27.922 46.723 9.6719 6.7695 29.566-42.207h0.003906c0.38281-0.57031 0.99609-0.94531 1.6758-1.0312l35.469-4.6758c0.63281-0.089843 1.2773 0.074219 1.7852 0.46484 0.51172 0.38672 0.84375 0.96484 0.92188 1.5977 0.09375 0.63672-0.074218 1.2852-0.46094 1.8008s-0.96484 0.85156-1.6016 0.94141l-34.438 4.5469-13.832 19.766c-0.55859 2.1484-1.043 4.3008-1.4492 6.4492l-2.6133-0.61328-2.9336 4.2227 4.707 1.2891z" fill="#7ee2fb"/>
 </g>
</svg>
