<?xml version="1.0" encoding="UTF-8"?>
<svg width="512pt" height="512pt" version="1.1" viewBox="0 0 512 512" xmlns="http://www.w3.org/2000/svg">
 <defs>
  <clipPath id="b">
   <path d="m94.781 94.781h322.44v258.22h-322.44z"/>
  </clipPath>
  <clipPath id="a">
   <path d="m201 397h110v20.219h-110z"/>
  </clipPath>
 </defs>
 <path d="m512 256c0 141.39-114.61 256-256 256s-256-114.61-256-256 114.61-256 256-256 256 114.61 256 256" fill="#fff"/>
 <path d="m256 163.88c-34.98 0-63.336 28.355-63.336 63.336 0 34.98 28.355 63.336 63.336 63.336s63.336-28.355 63.336-63.336c-0.039063-34.965-28.371-63.297-63.336-63.336zm41.668 60.766-12.445 12.078 2.9414 17.078c0.74609 4.3164-1.0273 8.6836-4.5664 11.262-3.543 2.582-8.2422 2.9258-12.125 0.89453l-15.469-8.0938-15.48 8.0977c-3.8828 2.0312-8.5781 1.6836-12.121-0.89844-3.5391-2.5781-5.3086-6.9453-4.5664-11.262l2.9414-17.082-12.445-12.074c-3.1484-3.0547-4.2891-7.6367-2.9375-11.812 1.3555-4.1758 4.9648-7.2188 9.3086-7.8477l17.246-2.4961 7.7344-15.594c1.9414-3.9219 5.9414-6.4023 10.316-6.4023s8.375 2.4805 10.316 6.4023l7.7344 15.594 17.246 2.4961c4.3438 0.62891 7.9531 3.6719 9.3086 7.8477 1.3516 4.1758 0.21094 8.7578-2.9375 11.812z" fill="#7ee2fb"/>
 <path d="m339.87 245.09c1.2734-0.46875 2.2031-1.5781 2.4375-2.9141 0.23438-1.2969-0.23828-2.6172-1.2422-3.4688-3.3242-2.8945-5.2305-7.0859-5.2344-11.496 0-4.4062 1.9062-8.5977 5.2266-11.492 1.0078-0.85547 1.4844-2.1758 1.25-3.4727-0.22266-1.293-1.0977-2.375-2.3125-2.8672l-0.125-0.046874c-4.1211-1.6055-7.3555-4.9062-8.8711-9.0586-1.4961-4.1094-1.1523-8.6641 0.94141-12.504 0.64453-1.1406 0.63281-2.5352-0.023437-3.6641-0.6875-1.1992-1.9609-1.9492-3.3477-1.9609-4.4414-0.11719-8.6211-2.1289-11.484-5.5273-2.8047-3.3438-4.043-7.7305-3.4062-12.047 0.20703-1.2969-0.28906-2.6094-1.3008-3.4453-1.0703-0.91016-2.5391-1.1953-3.8711-0.75-4.2188 1.3906-8.8359 0.91016-12.68-1.3164-3.7773-2.1875-6.4453-5.875-7.3398-10.148-0.27344-1.3086-1.2109-2.3789-2.4727-2.8203-1.3125-0.49609-2.7852-0.26953-3.8867 0.59375-3.4648 2.707-7.9102 3.8164-12.238 3.0625-4.332-0.75391-8.1367-3.3047-10.484-7.0234-0.73047-1.1641-2.0078-1.875-3.3828-1.8828-1.3789-0.007812-2.6641 0.69141-3.4062 1.8477-2.3398 3.7266-6.1484 6.293-10.48 7.0547-4.332 0.76172-8.7891-0.34766-12.258-3.0547-1.1016-0.86719-2.5781-1.0938-3.8906-0.59766-1.2617 0.44141-2.1992 1.5117-2.4727 2.8203-0.89062 4.2695-3.5625 7.9609-7.3398 10.145-3.8359 2.2188-8.4336 2.7031-12.645 1.332-1.3398-0.47266-2.8281-0.19141-3.9023 0.73047-1.0078 0.83203-1.5039 2.1289-1.3086 3.4219 0.64844 4.3242-0.59375 8.7227-3.4023 12.074-2.8594 3.3984-7.0352 5.4062-11.477 5.5234-1.3867 0.011719-2.6641 0.76172-3.3555 1.9688-0.65625 1.1172-0.67188 2.4961-0.042969 3.6289 2.1133 3.8672 2.457 8.4531 0.94141 12.59s-4.7461 7.418-8.8555 9.0039c-1.2734 0.46484-2.2031 1.5742-2.4375 2.9102-0.23438 1.2969 0.24219 2.6172 1.2422 3.4688 3.3242 2.8984 5.2344 7.0859 5.2344 11.496 0 4.4062-1.9062 8.5977-5.2266 11.496-1.0078 0.85156-1.4805 2.1719-1.25 3.4688 0.22266 1.293 1.0977 2.3789 2.3164 2.8672l0.12109 0.046876c4.1211 1.6055 7.3555 4.9062 8.875 9.0586 1.4922 4.1094 1.1484 8.6641-0.94531 12.504-0.64453 1.1406-0.63281 2.5352 0.023437 3.6641 0.69141 1.2031 1.9609 1.9492 3.3477 1.9648 4.4414 0.11328 8.6211 2.125 11.484 5.5273 2.8047 3.3438 4.043 7.7266 3.4062 12.043-0.20312 1.2969 0.28906 2.6094 1.3008 3.4453 1.0703 0.91406 2.5391 1.1953 3.8711 0.75 4.2227-1.3867 8.8359-0.90625 12.684 1.3164 3.7773 2.1875 6.4453 5.875 7.3359 10.148 0.27344 1.3086 1.2109 2.3789 2.4727 2.8203 1.3125 0.5 2.7852 0.27344 3.8867-0.59375 3.4648-2.707 7.9102-3.8164 12.242-3.0625 4.3281 0.75391 8.1367 3.3047 10.48 7.0234l0.023438 0.039063c0.74219 1.1484 2.0156 1.8438 3.3867 1.8438 1.3672 0 2.6406-0.69531 3.3828-1.8477 2.3359-3.7266 6.1445-6.2891 10.477-7.0547 4.3359-0.76172 8.7891 0.34766 12.258 3.0547 1.1016 0.87109 2.5781 1.0977 3.8906 0.59766 1.2617-0.44141 2.1992-1.5117 2.4727-2.8164 0.89453-4.2734 3.5625-7.9648 7.3398-10.148 3.8359-2.2188 8.4336-2.7031 12.645-1.3281 1.3398 0.46484 2.8281 0.1875 3.9023-0.73438 1.0078-0.83203 1.5039-2.1289 1.3086-3.418-0.64453-4.3281 0.59375-8.7266 3.4062-12.078 2.8555-3.3984 7.0352-5.4062 11.473-5.5234 1.3906-0.011719 2.668-0.76172 3.3555-1.9688 0.65625-1.1172 0.67188-2.4961 0.042969-3.6289-2.1133-3.8633-2.4531-8.4531-0.9375-12.59s4.7422-7.418 8.8516-9zm-25.863 29.34c-0.125 0.17969-0.26172 0.35156-0.40625 0.51562-16.562 20.309-42.668 30.293-68.555 26.219l-0.085937 0.019531c-0.21094-0.03125-0.41797-0.074219-0.625-0.12891-17.969-2.8242-34.289-12.098-45.914-26.086-0.21875-0.23438-0.41797-0.48828-0.59375-0.75781-24.75-30.582-21.598-75.102 7.2109-101.89 28.809-26.789 73.438-26.703 102.14 0.19531 28.707 26.898 31.688 71.43 6.8242 101.91z" fill="#7ee2fb"/>
 <path d="m263.73 207.6-7.75-15.633-7.7109 15.633c-1.6836 3.3906-4.9258 5.7422-8.6758 6.2812l-17.242 2.4961 12.445 12.074c2.7305 2.6484 3.9766 6.4727 3.3281 10.219l-2.9414 17.082 15.477-8.1016c3.3477-1.75 7.3398-1.75 10.684 0.003906l15.469 8.0938-2.9375-17.078c-0.64844-3.7461 0.59766-7.5742 3.332-10.223l12.445-12.074-17.25-2.4922c-3.7461-0.54297-6.9883-2.8906-8.6719-6.2812z" fill="#7ee2fb"/>
 <path d="m150.27 377.6c7.4258 6.5195 15.449 12.328 23.961 17.344l-5.0781-23.395z" fill="#7ee2fb"/>
 <path d="m240.16 316.02c-1.125-0.20312-2.2891 0.082031-3.1914 0.78516-4.2383 3.3281-9.8984 4.2109-14.949 2.3359-5.0039-1.8047-8.707-6.082-9.7773-11.293-0.22266-1.0664-0.89453-1.9883-1.8438-2.5273-1-0.57812-2.1992-0.70703-3.2969-0.34375-5.1328 1.707-10.785 0.61328-14.91-2.8867-4.0625-3.4023-6.0586-8.6758-5.2656-13.914 0.17188-1.0664-0.13281-2.1523-0.83203-2.9727-0.73438-0.88281-1.8164-1.3984-2.9609-1.418-0.97266-0.058594-1.9375-0.20703-2.8828-0.44531l-51.5 89.094 42.93-13.785c1.5469-0.49609 3.2344-0.31641 4.6406 0.49609 1.4062 0.81641 2.4023 2.1836 2.7461 3.7734l9.582 44.039 52.316-90.664c-0.26172-0.10938-0.53125-0.20312-0.80469-0.27344z" fill="#7ee2fb"/>
 <path d="m256 325.09c-2.0859-0.03125-4.1445-0.48828-6.0469-1.3359l-36.66 63.508c27.766 8.9883 57.66 8.9883 85.426 0l-36.664-63.512c-1.9062 0.85156-3.9648 1.3086-6.0547 1.3398z" fill="#7ee2fb"/>
 <path d="m337.77 394.95c8.5117-5.0156 16.535-10.824 23.961-17.344l-18.879-6.0508z" fill="#7ee2fb"/>
 <g clip-path="url(#b)">
  <path d="m256 94.781c-61.031-0.074219-116.86 34.367-144.18 88.941-27.32 54.574-21.441 119.91 15.188 168.73l6.3125-10.922c-17.617-25.035-27.059-54.914-27.02-85.527 0-82.68 67.023-149.7 149.7-149.7s149.7 67.023 149.7 149.7c0.039063 30.613-9.3984 60.492-27.02 85.527l6.3125 10.922c36.629-48.82 42.508-114.15 15.188-168.73-27.324-54.574-83.152-89.016-144.18-88.941z" fill="#7ee2fb"/>
 </g>
 <path d="m341.3 276.85 30.988 53.613c14.332-22.188 21.938-48.047 21.898-74.461 0-76.32-61.867-138.19-138.19-138.19s-138.19 61.867-138.19 138.19c-0.039062 26.414 7.5664 52.273 21.898 74.461l30.992-53.617c-0.18359-0.27734-0.43359-0.49609-0.60156-0.78906-2.6641-4.5938-2.7305-10.246-0.16797-14.895 0.52734-0.94141 0.61719-2.0625 0.24609-3.0781-0.36719-1.0117-1.1484-1.8242-2.1445-2.2305l-0.12109-0.046874c-4.9961-1.9219-8.6211-6.3203-9.5547-11.59-0.9375-5.2695 0.95703-10.645 4.9844-14.168 0.82812-0.70703 1.3047-1.7422 1.3086-2.832 0-1.0859-0.47266-2.125-1.2969-2.8359-4.0352-3.5195-5.9297-8.8945-4.9961-14.168 0.93359-5.2734 4.5586-9.6719 9.5547-11.594 1.0508-0.39453 1.8828-1.2305 2.2695-2.2852 0.37109-1 0.28516-2.1133-0.23047-3.0469-2.5742-4.6562-2.5156-10.324 0.15234-14.926 2.6836-4.6797 7.625-7.6133 13.016-7.7266 1.1523-0.023437 2.2344-0.53906 2.9727-1.4219 0.69531-0.8125 1-1.8867 0.83984-2.9414-0.80078-5.25 1.1914-10.535 5.2617-13.941 4.1133-3.4961 9.75-4.5938 14.871-2.8984 1.1094 0.37891 2.3242 0.25781 3.3359-0.33203 0.94531-0.53906 1.6172-1.457 1.8398-2.5234 1.0742-5.2109 4.7812-9.4883 9.7812-11.293 5.0469-1.8711 10.703-0.98828 14.938 2.332 0.90625 0.70703 2.0703 0.99219 3.1992 0.78906 1.1055-0.1875 2.0781-0.83594 2.6758-1.7852 2.8242-4.5508 7.8086-7.3125 13.168-7.2891h0.003906c5.3398-0.023437 10.316 2.7188 13.141 7.2539 0.59375 0.96484 1.5781 1.6289 2.6953 1.8203 1.1289 0.20703 2.2891-0.078125 3.1914-0.78516 4.2383-3.3242 9.8984-4.207 14.949-2.3359 5.0039 1.8086 8.707 6.082 9.7773 11.293 0.22656 1.0664 0.89453 1.9883 1.8438 2.5273 1 0.57813 2.1992 0.70313 3.2969 0.34375 5.1328-1.707 10.785-0.61328 14.91 2.8906 4.0625 3.3984 6.0586 8.6719 5.2656 13.91-0.17188 1.0664 0.13672 2.1523 0.83594 2.9727 0.73047 0.88281 1.8125 1.3984 2.957 1.418 5.3984 0.11328 10.344 3.0469 13.027 7.7305 2.6641 4.5938 2.7305 10.246 0.16797 14.895-0.52734 0.94141-0.61719 2.0664-0.24609 3.0781 0.36719 1.0117 1.1484 1.8242 2.1484 2.2305l0.11719 0.046876c4.9961 1.9219 8.6211 6.3203 9.5586 11.59 0.93359 5.2695-0.95703 10.645-4.9883 14.168-0.82812 0.70703-1.3047 1.7422-1.3086 2.832 0 1.0898 0.47266 2.125 1.2969 2.8359 4.0352 3.5195 5.9297 8.8945 4.9961 14.168-0.93359 5.2734-4.5547 9.6719-9.5547 11.594-1.0508 0.39453-1.8828 1.2305-2.2695 2.2852-0.36719 1-0.28516 2.1133 0.23438 3.0469 2.5742 4.6562 2.5156 10.324-0.15625 14.926-0.16797 0.28906-0.41016 0.50781-0.59375 0.78516z" fill="#7ee2fb"/>
 <g clip-path="url(#a)">
  <path d="m256 405.7c-16.543-0.019531-32.969-2.8125-48.59-8.2578l-5.9297 10.273c35.262 12.562 73.777 12.562 109.04 0l-5.9297-10.273c-15.621 5.4453-32.047 8.2383-48.59 8.2578z" fill="#7ee2fb"/>
 </g>
 <path d="m328.88 283.79c-1.1484 0.019531-2.2344 0.53516-2.9727 1.418-0.69141 0.8125-1 1.8867-0.83984 2.9453 0.80469 5.2461-1.1914 10.531-5.2617 13.938-4.1133 3.4922-9.7461 4.5938-14.871 2.8984-1.1055-0.37891-2.3242-0.25781-3.3359 0.33203-0.94531 0.53906-1.6172 1.457-1.8398 2.5234-1.0742 5.2109-4.7773 9.4883-9.7812 11.293-5.0469 1.875-10.703 0.99219-14.938-2.332-0.90625-0.70703-2.0703-0.99219-3.1992-0.78516-0.27734 0.054687-0.55078 0.13672-0.8125 0.24609l52.328 90.688 9.582-44.039c0.34375-1.5898 1.3398-2.9609 2.7461-3.7734 1.4102-0.8125 3.0938-0.99219 4.6406-0.49609l42.93 13.785-51.496-89.086c-0.94531 0.23828-1.9102 0.38672-2.8789 0.44531z" fill="#7ee2fb"/>
</svg>
