<?xml version="1.0" encoding="UTF-8"?>
<svg width="1333px" height="857px" viewBox="0 0 1333 857" version="1.1" xmlns="http://www.w3.org/2000/svg" xmlns:xlink="http://www.w3.org/1999/xlink">
    <title>webcam</title>
    <g id="Page-1" stroke="none" stroke-width="1" fill="none" fill-rule="evenodd">
        <g id="Artboard" transform="translate(-572.000000, -1657.000000)" fill="#0078D4" fill-rule="nonzero">
            <g id="webcam" transform="translate(572.000000, 1657.000000)">
                <path d="M1114.40946,0 L218.590543,0 C98.0453834,0 0,98.0194681 0,218.532766 L0,341.429515 C0,461.942812 98.0453834,559.962281 218.590543,559.962281 L569.944668,559.962281 L569.944668,664.834173 L279.980662,664.834173 C267.613235,664.834173 257.62989,674.814879 257.62989,687.179037 L257.62989,834.655136 C257.62989,847.019294 267.613235,857 279.980662,857 L1053.01934,857 C1065.38677,857 1075.37011,847.019294 1075.37011,834.655136 L1075.37011,687.179037 C1075.37011,674.814879 1065.38677,664.834173 1053.01934,664.834173 L764.247373,664.834173 L764.247373,559.962281 L1114.40946,559.962281 C1234.95462,559.962281 1333,461.942812 1333,341.429515 L1333,218.3838 C1333,98.0194681 1234.95462,0 1114.40946,0 Z M218.590543,515.123588 C122.780237,515.123588 44.7015426,437.214497 44.7015426,341.280549 L44.7015426,218.3838 C44.7015426,122.598818 122.631232,44.5407613 218.590543,44.5407613 L344.350883,44.5407613 C291.752068,84.4635842 257.62989,147.476099 257.62989,218.3838 L257.62989,341.280549 C257.62989,412.18825 291.752068,475.200765 344.350883,515.123588 L218.590543,515.123588 Z M1030.66857,709.374935 L1030.66857,812.161307 L302.331433,812.161307 L302.331433,709.374935 L1030.66857,709.374935 Z M614.646211,664.685208 L614.646211,559.813315 L719.545831,559.813315 L719.545831,664.685208 L614.646211,664.685208 Z M1288.29846,341.280549 C1288.29846,437.065531 1210.36877,515.123588 1114.40946,515.123588 L741.896602,515.123588 L592.295439,515.123588 L476.220434,515.123588 C380.410127,515.123588 302.331433,437.214497 302.331433,341.280549 L302.331433,218.3838 C302.331433,122.598818 380.261122,44.5407613 476.220434,44.5407613 L1114.40946,44.5407613 C1210.21976,44.5407613 1288.29846,122.449852 1288.29846,218.3838 L1288.29846,341.280549 Z" id="Shape"></path>
                <path d="M491.499652,221 C462.432048,221 439,247.13198 439,279.5 C439,311.719543 462.580352,338 491.499652,338 C520.567256,338 544,311.86802 544,279.5 C544.147608,247.13198 520.567256,221 491.499652,221 Z" id="Path"></path>
                <path d="M1198.5,214 C1186.57192,214 1177,224.972393 1177,238.5 C1177,252.027607 1186.71918,263 1198.5,263 C1210.42808,263 1220,252.027607 1220,238.5 C1220,224.972393 1210.42808,214 1198.5,214 Z" id="Path"></path>
                <path d="M1117.5,214 C1105.57192,214 1096,224.972393 1096,238.5 C1096,252.027607 1105.71918,263 1117.5,263 C1129.28082,263 1139,252.027607 1139,238.5 C1139,224.972393 1129.42808,214 1117.5,214 Z" id="Path"></path>
                <path d="M1036.5,214 C1024.57192,214 1015,224.972393 1015,238.5 C1015,252.027607 1024.71918,263 1036.5,263 C1048.28082,263 1058,252.027607 1058,238.5 C1058,224.972393 1048.42808,214 1036.5,214 Z" id="Path"></path>
                <path d="M1198.5,297 C1186.57192,297 1177,307.972393 1177,321.5 C1177,335.027607 1186.71918,346 1198.5,346 C1210.42808,346 1220,335.027607 1220,321.5 C1220,307.972393 1210.42808,297 1198.5,297 Z" id="Path"></path>
                <path d="M1117.5,297 C1105.57192,297 1096,307.972393 1096,321.5 C1096,335.027607 1105.71918,346 1117.5,346 C1129.28082,346 1139,335.027607 1139,321.5 C1139,307.972393 1129.42808,297 1117.5,297 Z" id="Path"></path>
                <path d="M1036.5,297 C1024.57192,297 1015,307.972393 1015,321.5 C1015,335.027607 1024.71918,346 1036.5,346 C1048.28082,346 1058,335.027607 1058,321.5 C1058,307.972393 1048.42808,297 1036.5,297 Z" id="Path"></path>
                <path d="M795,129 C718.862069,129 657,196.689655 657,280 C657,363.310345 718.862069,431 795,431 C871.137931,431 933,363.310345 933,280 C933,196.689655 870.989224,129 795,129 Z M708.898707,321.208867 C704.140086,308.563547 701.612069,294.57931 701.612069,280 C701.612069,265.42069 704.288793,251.436453 708.898707,238.642365 C710.831897,238.196059 712.765086,237.898522 714.846983,237.898522 C734.476293,237.898522 750.387931,256.792118 750.387931,279.851232 C750.387931,302.910345 734.476293,321.803941 714.846983,321.803941 C712.765086,321.952709 710.831897,321.655172 708.898707,321.208867 Z M795,386.22069 C773.140086,386.22069 752.915948,377.592118 737.00431,363.161576 C770.463362,352.747783 795,319.423645 795,280 C795,240.576355 770.463362,207.252217 737.00431,196.838424 C752.915948,182.407882 773.140086,173.77931 795,173.77931 C846.452586,173.77931 888.387931,221.53399 888.387931,280.148768 C888.387931,338.763547 846.452586,386.22069 795,386.22069 Z" id="Shape"></path>
            </g>
        </g>
    </g>
</svg>