<svg width="410" height="260" viewBox="0 0 410 260" fill="none" xmlns="http://www.w3.org/2000/svg">
<rect width="410" height="260" rx="16" fill="white"/>
<rect x="0.5" y="0.5" width="409" height="259" rx="15.5" stroke="black" stroke-opacity="0.1"/>
<path d="M98.1412 125.97C95.8695 125.97 94.0295 127.827 94.0295 130.12C94.0295 132.412 95.8695 134.269 98.1412 134.269H111.733L108.605 125.974H98.1412V125.97Z" fill="#FEBA06"/>
<path d="M66.6832 134.265H86.6308C88.9026 134.265 90.7425 132.408 90.7425 130.116C90.7425 127.827 88.9026 125.966 86.6308 125.966H66.6832C64.4115 125.966 62.5715 127.823 62.5715 130.116C62.5715 132.408 64.4115 134.265 66.6832 134.265Z" fill="#A3D008"/>
<path d="M113.829 140.319H71.32C70.2464 139.031 68.6399 138.207 66.8427 138.207C63.614 138.207 61 140.849 61 144.103C61 147.362 63.6179 150 66.8427 150C68.6399 150 70.2464 149.18 71.32 147.888H116.685L113.829 140.319Z" fill="#F8562C"/>
<path d="M103.607 112.222H71.4056C70.3359 110.872 68.6904 110 66.8427 110C63.614 110 61 112.642 61 115.897C61 119.155 63.6179 121.793 66.8427 121.793C68.5893 121.793 70.1491 121.016 71.2189 119.791H106.462L103.607 112.222Z" fill="#39BFCE"/>
<path d="M133.965 140.259H149.393V136.244H138.394V131.935H147.946V127.919H138.394V123.756H149.248V119.741H133.965V140.259Z" fill="black"/>
<path d="M152.904 140.259H160.806C167.174 140.259 171.574 135.775 171.574 130V129.941C171.574 124.167 167.174 119.741 160.806 119.741H152.904V140.259ZM160.806 123.815C164.453 123.815 166.914 126.365 166.914 130V130.059C166.914 133.693 164.453 136.185 160.806 136.185H157.362V123.815H160.806Z" fill="black"/>
<path d="M184.848 140.611C188.553 140.611 191.419 139.146 193.503 137.357V128.446H184.704V132.345H189.19V135.276C188.061 136.097 186.614 136.507 184.993 136.507C181.404 136.507 178.857 133.752 178.857 130V129.941C178.857 126.453 181.433 123.551 184.675 123.551C187.019 123.551 188.409 124.313 189.972 125.632L192.779 122.203C190.666 120.385 188.466 119.389 184.819 119.389C178.683 119.389 174.196 124.167 174.196 130V130.059C174.196 136.126 178.538 140.611 184.848 140.611Z" fill="black"/>
<path d="M197.34 140.259H212.768V136.244H201.768V131.935H211.32V127.919H201.768V123.756H212.623V119.741H197.34V140.259Z" fill="black"/>
<path d="M224.707 140.259H229.165V119.741H224.707V140.259Z" fill="black"/>
<path d="M233.776 140.259H238.147V126.951L243.791 135.628H243.907L249.609 126.864V140.259H254.038V119.741H249.233L243.907 128.417L238.581 119.741H233.776V140.259Z" fill="black"/>
<path d="M258.453 140.259H262.91V134.104H266.297C270.842 134.104 274.489 131.641 274.489 126.893V126.834C274.489 122.642 271.565 119.741 266.731 119.741H258.453V140.259ZM262.91 130.088V123.815H266.355C268.584 123.815 269.973 124.9 269.973 126.922V126.981C269.973 128.74 268.671 130.088 266.442 130.088H262.91Z" fill="black"/>
<path d="M285.787 140.582C291.229 140.582 294.673 137.533 294.673 131.319V119.741H290.216V131.495C290.216 134.749 288.566 136.419 285.845 136.419C283.124 136.419 281.474 134.69 281.474 131.348V119.741H277.017V131.466C277.017 137.504 280.346 140.582 285.787 140.582Z" fill="black"/>
<path d="M298.762 140.259H313.321V136.156H303.219V119.741H298.762V140.259Z" fill="black"/>
<path d="M323.438 140.553C327.809 140.553 330.877 138.266 330.877 134.192V134.133C330.877 130.557 328.561 129.062 324.451 127.977C320.949 127.069 320.08 126.629 320.08 125.281V125.222C320.08 124.225 320.978 123.434 322.685 123.434C324.393 123.434 326.159 124.196 327.953 125.457L330.269 122.056C328.214 120.385 325.696 119.447 322.743 119.447C318.604 119.447 315.652 121.91 315.652 125.632V125.691C315.652 129.765 318.286 130.909 322.367 131.964C325.754 132.843 326.448 133.43 326.448 134.573V134.631C326.448 135.833 325.348 136.566 323.525 136.566C321.209 136.566 319.299 135.599 317.475 134.074L314.841 137.27C317.273 139.468 320.37 140.553 323.438 140.553Z" fill="black"/>
<path d="M334.293 140.259H349.721V136.244H338.722V131.935H348.274V127.919H338.722V123.756H349.576V119.741H334.293V140.259Z" fill="black"/>
</svg>
