<?xml version="1.0" encoding="UTF-8"?>
<svg width="512pt" height="512pt" version="1.1" viewBox="0 0 512 512" xmlns="http://www.w3.org/2000/svg">
 <g>
  <path d="m512 256c0 141.39-114.61 256-256 256s-256-114.61-256-256 114.61-256 256-256 256 114.61 256 256" fill="#fff"/>
  <path d="m376.91 306.38h-10.074v-30.23h5.0391l-0.003906-10.074h-60.457v10.078h5.0391v30.23l-30.227-0.003907v-35.27h-50.383v35.266l-50.379 0.003906v-20.152c0-1.3359-0.53125-2.6211-1.4766-3.5625-0.94531-0.94531-2.2266-1.4766-3.5625-1.4766h-65.496v-5.0391c0-2.7812 2.2539-5.0391 5.0391-5.0391h25.191c5.3984 0 10.387-2.8789 13.086-7.5547 2.7031-4.6758 2.7031-10.438 0-15.117-2.6992-4.6758-7.6875-7.5547-13.086-7.5547h-15.117c-2.7812 0-5.0352-2.2578-5.0352-5.0391v-5.0391h5.0352c4.0078 0 7.8555-1.5898 10.688-4.4258 2.8359-2.8359 4.4297-6.6797 4.4297-10.688v-10.254l16.344 11.895-0.003906 0.003906c1.4766 4.5078 4.543 8.3281 8.625 10.746 4.082 2.4141 8.9062 3.2656 13.57 2.3906l31.996 13.73v6.7539c0 1.3359 0.53125 2.6172 1.4766 3.5625 0.94531 0.94531 2.2266 1.4766 3.5625 1.4766h10.078-0.003906c1.3359 0 2.6172-0.53125 3.5625-1.4766l10.078-10.078-7.125-7.125-8.6016 8.6055h-2.9492v-30.23h2.9531l8.6016 8.6016 7.125-7.125-10.078-10.078h-0.003906c-0.94531-0.94141-2.2266-1.4727-3.5625-1.4727h-10.074c-2.7852 0-5.0391 2.2539-5.0391 5.0352v6.5195l-15.32-8.5664v0.003906c-0.49609-4.9531-2.8086-9.543-6.4922-12.887-3.6875-3.3438-8.4766-5.207-13.453-5.2227-1.5273 0.011719-3.0508 0.19922-4.5352 0.55859l-30.73-27.977v-17.922c0-4.0117-1.5938-7.8555-4.4297-10.688-2.832-2.8359-6.6797-4.4297-10.688-4.4297h-20.152c-2.7812 0-5.0352 2.2578-5.0352 5.0391v90.688c0 1.3359 0.52734 2.6172 1.4727 3.5625 0.94531 0.94141 2.2266 1.4727 3.5625 1.4727h5.0391v5.0391c0 4.0078 1.5938 7.8516 4.4258 10.688 2.8359 2.8359 6.6797 4.4258 10.688 4.4258h15.117c2.7812 0 5.0352 2.2578 5.0352 5.0391s-2.2539 5.0391-5.0352 5.0391h-25.191c-4.0078 0-7.8555 1.5898-10.688 4.4258-2.8359 2.8359-4.4258 6.6797-4.4258 10.688v125.95c0 1.3359 0.52734 2.6172 1.4727 3.5625 0.94531 0.94531 2.2266 1.4766 3.5625 1.4766h70.535c1.3359 0 2.6172-0.53125 3.5625-1.4766 0.94531-0.94531 1.4766-2.2266 1.4766-3.5625v-35.266h171.29v15.113h-5.0391c-1.6836 0-3.2539 0.83984-4.1914 2.2422l-10.078 15.113h0.003906c-1.0312 1.5469-1.1289 3.5352-0.25391 5.1719 0.87891 1.6406 2.5859 2.6641 4.4453 2.6641h40.305c1.8594 0 3.5664-1.0234 4.4414-2.6641 0.87891-1.6367 0.78125-3.625-0.25-5.1719l-10.078-15.113c-0.93359-1.4023-2.5039-2.2422-4.1914-2.2422h-5.0352v-15.113h10.078-0.003907c10.801 0 20.781-5.7617 26.18-15.117 5.3984-9.3516 5.3984-20.875 0-30.227-5.3984-9.3516-15.379-15.113-26.18-15.113zm-246.87-85.648h-15.113v-22.953c3.043 1.832 6.5234 2.8008 10.078 2.8008 3.5508 0 7.0312-0.96875 10.074-2.8008v17.914c0 1.3359-0.53125 2.6172-1.4766 3.5625-0.94531 0.94531-2.2266 1.4766-3.5625 1.4766zm85.648 12.508-20.609-8.8438v0.003906c1.4414-1.5508 2.6328-3.3164 3.5273-5.2344l17.082 9.5547zm-49.184-37.094c-2.4414 2.3633-4.2461 5.3125-5.2383 8.5625l-16.109-11.73v-16.266zm-36.465-56.023c1.3359 0 2.6172 0.53125 3.5625 1.4766 0.94531 0.94141 1.4766 2.2227 1.4766 3.5625v17.914c-3.043-1.832-6.5234-2.8008-10.074-2.8008-3.5547 0-7.0352 0.96875-10.078 2.8008v-22.953zm-5.0352 166.26h40.305v25.191l-40.305-0.003907zm5.0352 75.57h-10.074v-10.078h10.074zm0-20.152h-10.074v-10.078h10.074zm20.152 20.152h-10.074v-10.078h10.078zm0-20.152h-10.074v-10.078h10.078zm20.152 20.152h-10.074v-10.078h10.078zm0-20.152h-10.074v-10.078h10.078zm206.56-5.0391h-191.45v-40.305h191.45c7.1992 0 13.852 3.8398 17.453 10.078 3.6016 6.2344 3.6016 13.914 0 20.152-3.6016 6.2344-10.254 10.074-17.453 10.074z" fill="#7ee2fb"/>
  <path d="m240.89 336.61c0-5.3438-2.125-10.469-5.9023-14.25-3.7812-3.7773-8.9062-5.9023-14.25-5.9023s-10.473 2.125-14.25 5.9023c-3.7812 3.7812-5.9023 8.9062-5.9023 14.25s2.1211 10.473 5.9023 14.25c3.7773 3.7812 8.9062 5.9023 14.25 5.9023s10.469-2.1211 14.25-5.9023c3.7773-3.7773 5.9023-8.9062 5.9023-14.25zm-15.113 5.0391h-10.078v-10.078h10.078z" fill="#7ee2fb"/>
  <path d="m311.42 336.61c0-5.3438-2.1211-10.469-5.9023-14.25-3.7773-3.7773-8.9023-5.9023-14.25-5.9023-5.3438 0-10.469 2.125-14.25 5.9023-3.7773 3.7812-5.9023 8.9062-5.9023 14.25s2.125 10.473 5.9023 14.25c3.7812 3.7812 8.9062 5.9023 14.25 5.9023 5.3477 0 10.473-2.1211 14.25-5.9023 3.7812-3.7773 5.9023-8.9062 5.9023-14.25zm-15.113 5.0391h-10.074v-10.078h10.078z" fill="#7ee2fb"/>
  <path d="m381.95 336.61c0-5.3438-2.125-10.469-5.9023-14.25-3.7812-3.7773-8.9062-5.9023-14.25-5.9023s-10.473 2.125-14.25 5.9023c-3.7812 3.7812-5.9023 8.9062-5.9023 14.25s2.1211 10.473 5.9023 14.25c3.7773 3.7812 8.9062 5.9023 14.25 5.9023s10.469-2.1211 14.25-5.9023c3.7773-3.7773 5.9023-8.9062 5.9023-14.25zm-15.113 5.0391h-10.078v-10.078h10.078z" fill="#7ee2fb"/>
  <path d="m230.81 225.77h60.457v10.078h-60.457z" fill="#7ee2fb"/>
  <path d="m213.8 176.4c4.5039-6.0586 6.9375-13.406 6.9375-20.957 0-7.5469-2.4336-14.898-6.9375-20.953l-8.1016 5.9961v-0.003906c3.2227 4.3242 4.9609 9.5703 4.9609 14.961s-1.7383 10.637-4.9609 14.957z" fill="#7ee2fb"/>
  <path d="m220.64 184.02 7.8203 6.3633c8.0391-9.875 12.43-22.219 12.43-34.953 0-12.734-4.3906-25.078-12.43-34.953l-7.8203 6.3555c6.582 8.0781 10.172 18.18 10.172 28.594 0 10.418-3.5898 20.52-10.172 28.594z" fill="#7ee2fb"/>
  <path d="m235.45 197.7 7.6875 6.5156c11.559-13.629 17.906-30.918 17.906-48.789 0-17.867-6.3477-35.156-17.906-48.785l-7.6875 6.5078c10.02 11.809 15.516 26.793 15.516 42.277s-5.4961 30.465-15.516 42.273z" fill="#7ee2fb"/>
  <path d="m407.14 165.32h-10.078v-55.422c0-1.3359-0.53125-2.6172-1.4766-3.5625-0.94141-0.94531-2.2266-1.4727-3.5625-1.4727h-90.684c-2.7812 0-5.0391 2.2539-5.0391 5.0352v55.422h-10.074c-2.7852 0-5.0391 2.2539-5.0391 5.0352v10.078c0 1.3359 0.53125 2.6172 1.4766 3.5625 0.94141 0.94531 2.2266 1.4766 3.5625 1.4766h120.91c1.3359 0 2.6172-0.53125 3.5625-1.4766 0.94531-0.94531 1.4727-2.2266 1.4727-3.5625v-10.078c0-1.3359-0.52734-2.6172-1.4727-3.5625-0.94531-0.94531-2.2266-1.4727-3.5625-1.4727zm-90.688-40.305h60.457v40.305h-60.457z" fill="#7ee2fb"/>
  <path d="m368.32 126.48-18.137 18.137-17.383-4.3477c-1.7188-0.42969-3.5352 0.074218-4.7852 1.3281l-10.078 10.078 7.125 7.125 8.0625-8.0625 17.383 4.3477-0.003906-0.003906c1.7188 0.42969 3.5352-0.070313 4.7852-1.3242l20.152-20.152z" fill="#7ee2fb"/>
 </g>
</svg>
