<?xml version="1.0" encoding="UTF-8"?>
<svg width="1144px" height="1144px" viewBox="0 0 1144 1144" version="1.1" xmlns="http://www.w3.org/2000/svg" xmlns:xlink="http://www.w3.org/1999/xlink">
    <title>resources</title>
    <g id="Page-1" stroke="none" stroke-width="1" fill="none" fill-rule="evenodd">
        <g id="Artboard" transform="translate(-1222.000000, -2879.000000)" fill="#0078D4" fill-rule="nonzero">
            <g id="resources" transform="translate(1222.000000, 2879.000000)">
                <path d="M974.16343,384.329556 C887.322331,384.349868 814.492625,449.898026 805.351459,536.263628 L702.759535,536.263628 C698.02693,536.283583 693.495434,538.179894 690.158959,541.536634 L676.396628,555.300074 L676.396628,467.71455 L768.62212,467.71455 C778.493192,467.71455 786.495278,459.71182 786.495278,449.839953 L786.495278,410.337094 C896.116975,400.767757 978.757516,306.555201 973.968696,196.612089 C969.179876,86.6689766 878.660632,0 768.62212,0 C658.583608,0 568.064365,86.6689766 563.275545,196.612089 C558.486724,306.555201 641.127265,400.767757 750.748963,410.337094 L750.748963,431.965356 L658.434105,431.965356 C648.563033,431.965356 640.560948,439.968086 640.560948,449.839953 L640.560948,589.887418 C640.560948,590.334283 640.560948,590.781148 640.560948,591.228013 L612.857554,618.933638 C609.631282,622.233041 607.806006,626.652484 607.763704,631.26711 L607.763704,670.323104 L559.774276,670.323104 L559.774276,604.455215 C559.684168,599.639026 557.654156,595.063075 554.144232,591.764251 L527.334495,564.952356 L527.334495,449.839953 C527.334495,439.968086 519.33241,431.965356 509.461338,431.965356 L381.400165,431.965356 L381.400165,391.479395 C475.793758,378.877434 543.729668,294.471626 535.872646,199.557707 C528.015624,104.643787 447.125416,32.5598641 351.944719,35.6534858 C256.764021,38.7471076 180.724647,115.931653 179.046605,211.155487 C177.368563,306.379321 250.641257,386.19548 345.653851,392.641243 L345.653851,449.839953 C345.653851,459.71182 353.655936,467.71455 363.527008,467.71455 L491.588181,467.71455 L491.588181,528.845671 L477.379021,514.635366 C474.027956,511.311398 469.498254,509.447966 464.778445,509.451733 L320.720796,509.451733 C311.236096,424.611165 237.138028,361.954091 151.907972,366.704181 C66.6779152,371.454272 0,441.957155 0,527.32633 C0,612.695504 66.6779152,683.198387 151.907972,687.948478 C237.138028,692.698569 311.236096,630.041494 320.720796,545.200927 L457.361084,545.200927 L523.938596,611.783799 L523.938596,670.323104 L375.412658,670.323104 C355.670513,670.323104 339.666343,686.328563 339.666343,706.072297 L339.666343,777.570684 C339.707107,779.014539 339.886666,780.451124 340.202538,781.860587 C340.244348,782.036888 340.244348,782.220525 340.202538,782.396825 L437.52188,1130.95146 C439.689081,1138.68072 446.742755,1144.01709 454.769476,1143.99996 L689.265301,1143.99996 C697.125772,1143.81958 703.945252,1138.52318 706.066069,1130.95146 L803.385411,782.396825 C803.343601,782.220525 803.343601,782.036888 803.385411,781.860587 C803.852342,780.466144 804.181588,779.029318 804.368435,777.570684 L804.368435,706.072297 C804.368435,686.328563 788.364265,670.323104 768.62212,670.323104 L643.510018,670.323104 L643.510018,638.595695 L710.08753,572.012822 L805.351459,572.012822 C814.978594,662.969804 894.912749,729.958795 986.144069,723.526459 C1077.37539,717.094122 1147.12089,639.551848 1143.8923,548.143732 C1140.66371,456.735615 1065.62119,384.308165 974.16343,384.329556 Z M598.827125,205.583588 C598.827125,111.80085 674.846934,35.7749193 768.62212,35.7749193 C862.397307,35.7749193 938.417115,111.80085 938.417115,205.583588 C938.417115,299.366327 862.397307,375.392257 768.62212,375.392257 C674.846934,375.392257 598.827125,299.366327 598.827125,205.583588 Z M357.5395,357.517661 C278.570922,357.517661 214.554241,293.495824 214.554241,214.520887 C214.554241,135.545949 278.570922,71.5241128 357.5395,71.5241128 C436.508078,71.5241128 500.524759,135.545949 500.524759,214.520887 C500.524759,252.445989 485.460284,288.817778 458.645347,315.634875 C431.830409,342.451972 395.461549,357.517661 357.5395,357.517661 Z M160.934769,652.448507 C91.8372632,652.448507 35.8226673,596.4294 35.8226673,527.32633 C35.8226673,458.223259 91.8372632,402.204153 160.934769,402.204153 C230.032275,402.204153 286.046871,458.223259 286.046871,527.32633 C286.046871,596.4294 230.032275,652.448507 160.934769,652.448507 Z M675.681702,1108.25072 L468.353076,1108.25072 L381.042702,795.445281 L762.992076,795.445281 L675.681702,1108.25072 Z M768.62212,706.072297 L768.62212,759.696088 L375.412658,759.696088 L375.412658,706.072297 L768.62212,706.072297 Z M974.16343,688.197701 C919.9458,688.197701 871.066787,655.535158 850.318598,605.440565 C829.570409,555.345972 841.039045,497.684602 879.376699,459.343861 C917.714353,421.003119 975.37108,409.53356 1025.46164,430.283419 C1075.5522,451.033279 1108.21211,499.916228 1108.21211,554.138225 C1108.21211,628.177229 1048.19647,688.197701 974.16343,688.197701 Z" id="Shape"></path>
                <path d="M858,313.142857 L858,98.8571429 C858,88.9949152 849.985897,81 840.1,81 L696.9,81 C687.014103,81 679,88.9949152 679,98.8571429 L679,313.142857 C679,323.005085 687.014103,331 696.9,331 L840.1,331 C849.985897,331 858,323.005085 858,313.142857 Z M822.2,295.285714 L714.8,295.285714 L714.8,116.714286 L822.2,116.714286 L822.2,295.285714 Z" id="Shape"></path>
                <circle id="Oval" cx="769" cy="259" r="18"></circle>
                <path d="M476.996716,280.439163 C480.063365,274.522621 479.580686,267.393123 475.744492,261.942966 L440.592792,212.173004 C441.789041,208.722249 442.423215,205.10208 442.471127,201.45057 L442.471127,136.579848 C442.421971,117.502303 426.953051,102.049106 407.856094,102 L307.141553,102 C288.044596,102.049106 272.575676,117.502303 272.52652,136.579848 L272.52652,201.361217 C272.574432,205.012726 273.208606,208.632896 274.404855,212.08365 L239.253155,261.853612 C235.420018,267.302074 234.937481,274.427778 238.00114,280.342327 C241.064798,286.256876 247.16638,289.979023 253.832613,290 L461.165034,290 C467.810236,289.997937 473.906696,286.316253 476.996716,280.439163 Z M308.304332,137.473384 L406.693315,137.473384 L406.693315,200.020913 L308.304332,200.020913 L308.304332,137.473384 Z M288.358202,254.347909 L300.969881,236.477186 L414.027766,236.477186 L426.639445,254.347909 L288.358202,254.347909 Z" id="Shape"></path>
                <path d="M235.836126,460.318885 C210.89206,454.989231 185.003609,456.09855 160.605774,463.542501 C136.208607,456.094644 110.319157,454.985283 85.3754226,460.318885 C76.1500059,462.170378 69.9337471,470.858553 71.1523239,480.197848 C71.1018785,480.973082 71.1018785,481.750781 71.1523239,482.526015 L71.1523239,567.325013 C71.0361941,572.78517 73.4153319,577.999962 77.6137387,581.487678 C81.8121456,584.975394 87.3709168,586.354812 92.7106055,585.233988 C112.86687,580.763989 133.868675,582.0043 153.360045,588.815783 C155.668988,589.700822 158.136124,590.097186 160.605774,589.979867 C163.039179,589.733026 165.438645,589.222618 167.762051,588.457604 C187.252484,581.641434 208.255605,580.401045 228.41149,584.875809 C233.751179,585.996632 239.30995,584.617215 243.508357,581.129499 C247.706764,577.641783 250.085901,572.426991 249.969772,566.966833 C249.969772,566.966833 249.969772,480.556027 249.969772,479.750123 C250.476466,470.732016 244.565379,462.605328 235.836126,460.318885 L235.836126,460.318885 Z M142.715084,548.789223 C130.904977,546.741358 118.893103,546.11009 106.933704,546.908781 L106.933704,493.181855 C118.913966,492.130838 130.984597,492.946438 142.715084,495.599567 L142.715084,548.789223 Z M214.277845,546.908781 C202.318365,546.121931 190.307891,546.753125 178.496465,548.789223 L178.496465,495.689112 C190.226952,493.035983 202.297583,492.220383 214.277845,493.2714 L214.277845,546.908781 Z" id="Shape"></path>
                <path d="M974.5,454 C920.099952,454 876,498.099952 876,552.5 C876,606.900048 920.099952,651 974.5,651 C1028.90005,651 1073,606.900048 1073,552.5 C1073,498.099952 1028.90005,454 974.5,454 L974.5,454 Z M942.890455,498.772727 C948.199597,523.465255 935.133457,548.430243 911.818182,558.141364 C911.818182,556.260909 911.818182,554.380455 911.818182,552.5 C911.865091,530.264084 923.68885,509.717321 942.890455,498.504091 L942.890455,498.772727 Z M925.429091,591.631364 C965.319956,575.201747 987.424302,532.282158 977.634091,490.265909 C996.774185,491.22818 1014.42243,500.893481 1025.54091,516.502727 C985.818907,531.73549 962.675815,573.197056 970.56,615.002727 C952.847964,613.867515 936.447453,605.276772 925.429091,591.362727 L925.429091,591.631364 Z M1005.48273,607.212273 C1001.46938,583.135644 1014.61666,559.477976 1037.18182,550.171818 C1037.18182,550.977727 1037.18182,551.694091 1037.18182,552.5 C1037.16541,575.025284 1025.06395,595.809713 1005.48273,606.943636 L1005.48273,607.212273 Z" id="Shape"></path>
            </g>
        </g>
    </g>
</svg>